<?xml version="1.0" encoding="UTF-8" standalone="no"?>
<!DOCTYPE svg PUBLIC "-//W3C//DTD SVG 1.1//EN" "http://www.w3.org/Graphics/SVG/1.1/DTD/svg11.dtd">
<svg width="100%" height="100%" viewBox="0 0 25 25" version="1.1" xmlns="http://www.w3.org/2000/svg" xmlns:xlink="http://www.w3.org/1999/xlink" xml:space="preserve" xmlns:serif="http://www.serif.com/" style="fill-rule:evenodd;clip-rule:evenodd;stroke-linecap:round;stroke-linejoin:round;stroke-miterlimit:10;">
    <g transform="matrix(0.371538,0,0,0.371538,-2.18605,-3.29228)">
        <path d="M26,56L26,45L34,37L45,37L53,45L53,56L26,56Z" style="fill:white;fill-rule:nonzero;stroke:black;stroke-width:4px;"/>
    </g>
    <g transform="matrix(0.371538,0,0,0.371538,-2.18605,-3.29228)">
        <path d="M26,56L9,56" style="fill:none;fill-rule:nonzero;stroke:black;stroke-width:4px;"/>
    </g>
    <g transform="matrix(0.371538,0,0,0.371538,-2.18605,-3.29228)">
        <path d="M70,56L53,56" style="fill:none;fill-rule:nonzero;stroke:black;stroke-width:4px;"/>
    </g>
    <g transform="matrix(0.371538,0,0,0.371538,-2.18605,-3.29228)">
        <path d="M39.5,12.755L39.5,29.5" style="fill:none;fill-rule:nonzero;stroke:black;stroke-width:3px;"/>
    </g>
    <g transform="matrix(0.371538,0,0,0.371538,-2.18605,-3.29228)">
        <path d="M71.5,42.5L59.5,45.5" style="fill:none;fill-rule:nonzero;stroke:black;stroke-width:3px;"/>
    </g>
    <g transform="matrix(0.371538,0,0,0.371538,-2.18605,-3.29228)">
        <path d="M12.5,23.5L24.5,35.5" style="fill:none;fill-rule:nonzero;stroke:black;stroke-width:3px;"/>
    </g>
    <g transform="matrix(0.371538,0,0,0.371538,-2.18605,-3.29228)">
        <path d="M66.5,23.5L54.5,35.5" style="fill:none;fill-rule:nonzero;stroke:black;stroke-width:3px;"/>
    </g>
    <g transform="matrix(0.371538,0,0,0.371538,-2.18605,-3.29228)">
        <path d="M7.5,42.5L19.5,45.5" style="fill:none;fill-rule:nonzero;stroke:black;stroke-width:3px;"/>
    </g>
    <g transform="matrix(0.371538,0,0,0.371538,2.27242,7.96213)">
        <path d="M6.5,35.48L24.5,35.5" style="fill:none;fill-rule:nonzero;stroke:black;stroke-width:3px;"/>
    </g>
    <g transform="matrix(0.371538,0,0,0.371538,12.6071,7.91357)">
        <path d="M6.5,35.48L16.578,35.491" style="fill:none;fill-rule:nonzero;stroke:black;stroke-width:3px;"/>
    </g>
    <g transform="matrix(0.371538,0,0,0.371538,8.81385,10.348)">
        <path d="M6.5,35.48L16.578,35.491" style="fill:none;fill-rule:nonzero;stroke:black;stroke-width:3px;"/>
    </g>
</svg>
