<svg clip-rule="evenodd" fill-rule="evenodd" stroke-linecap="round" stroke-linejoin="round" stroke-miterlimit="10" viewBox="0 0 25 25" xmlns="http://www.w3.org/2000/svg"><g stroke="#000"><path d="m26 56v-11l8-8h11l8 8v11z" fill="#fff" fill-rule="nonzero" stroke-width="4" transform="matrix(.371538 0 0 .371538 -2.18605 -3.29228)"/><g fill="none"><path d="m26 56h-17" stroke-width="4" transform="matrix(.371538 0 0 .371538 -2.18605 -3.29228)"/><path d="m70 56h-17" stroke-width="4" transform="matrix(.371538 0 0 .371538 -2.18605 -3.29228)"/><path d="m39.5 12.755v16.745" stroke-width="3" transform="matrix(.371538 0 0 .371538 -2.18605 -3.29228)"/><path d="m71.5 42.5-12 3" stroke-width="3" transform="matrix(.371538 0 0 .371538 -2.18605 -3.29228)"/><path d="m12.5 23.5 12 12" stroke-width="3" transform="matrix(.371538 0 0 .371538 -2.18605 -3.29228)"/><path d="m66.5 23.5-12 12" stroke-width="3" transform="matrix(.371538 0 0 .371538 -2.18605 -3.29228)"/><path d="m7.5 42.5 12 3" stroke-width="3" transform="matrix(.371538 0 0 .371538 -2.18605 -3.29228)"/><path d="m6.5 35.48 18 .02" stroke-width="3" transform="matrix(.371538 0 0 .371538 2.27242 7.96213)"/><path d="m6.5 35.48 10.078.011" stroke-width="3" transform="matrix(.371538 0 0 .371538 12.6071 7.91357)"/><path d="m6.5 35.48 10.078.011" stroke-width="3" transform="matrix(.371538 0 0 .371538 8.81385 10.348)"/></g></g></svg>